<svg width="17" height="16" viewBox="0 0 17 16" fill="none" xmlns="http://www.w3.org/2000/svg">
  <path fill-rule="evenodd" clip-rule="evenodd"
    d="M7.66673 2.66699C7.39059 2.66699 7.16673 2.89085 7.16673 3.16699V6.66699H3.66675C3.39061 6.66699 3.16675 6.89085 3.16675 7.16699V8.50032C3.16675 8.77647 3.39061 9.00032 3.66675 9.00032H7.16673V12.8337C7.16673 13.1098 7.39059 13.3337 7.66673 13.3337H9.00006C9.27621 13.3337 9.50006 13.1098 9.50006 12.8337V9.00032H13.3334C13.6096 9.00032 13.8334 8.77647 13.8334 8.50033V7.16699C13.8334 6.89085 13.6096 6.66699 13.3334 6.66699H9.50006V3.16699C9.50006 2.89085 9.27621 2.66699 9.00006 2.66699H7.66673Z"
    fill="#565d65" />
</svg>