<svg width="108" height="22" viewBox="0 0 108 22" fill="none" xmlns="http://www.w3.org/2000/svg">
<path d="M13.8171 13.6671H13.82L22.4046 6.89348L20.0762 5.02368L13.82 9.96278H13.8171L13.8141 9.96572L7.55792 5.02956L5.23242 6.89936L13.8141 13.67L13.8171 13.6671Z" fill="#2986FF"/>
<path d="M13.8173 5.32129L17.1453 2.67535L13.8173 0.00587889L13.8143 0L10.4922 2.66947L13.8143 5.31835L13.8173 5.32129Z" fill="#2986FF"/>
<path d="M13.8177 18.2959L13.8148 18.2988L2.32549 9.23501L0 11.1019L0.223434 11.2812L13.8177 22.0002L22.4112 15.2237L27.6384 11.0989L25.3099 9.22913L13.8177 18.2959Z" fill="#2986FF"/>
<path d="M104.724 14.4713H103.055L102.081 18.1315H99.6471V13.1659H106.356V11.5754H99.6471V8.75896H104.557V7.16846H93.0705V8.75896H97.9802V11.5754H91.2712V13.1659H97.9802V18.1315H95.543L94.5698 14.4713H92.9L93.8819 18.1315H90.7832V19.722H106.844V18.1315H103.745L104.724 14.4713Z" fill="white"/>
<path d="M102.55 2.60527L102.297 2.31128H95.3203L95.0674 2.60527C93.7313 4.12293 92.2227 5.47957 90.5723 6.64769V8.60574C91.3014 8.13829 94.4265 6.06851 96.1111 3.91942H101.538C103.22 6.06851 106.348 8.13829 107.077 8.60574V6.64769C105.415 5.48153 103.896 4.12482 102.55 2.60527Z" fill="white"/>
<path d="M74.5655 6.70352H75.8149V5.1101H74.5655V2.27014H72.9955V5.1101H71.7578V6.70352H72.9985V11.6221L71.7578 12.0513V13.8153L72.9985 13.3861V16.2936C72.9451 17.4738 72.7223 18.6402 72.337 19.7569H73.9833C74.3356 18.6345 74.5334 17.4694 74.5713 16.2936V12.8422L75.8238 12.4071V10.6254L74.5713 11.0605L74.5655 6.70352Z" fill="white"/>
<path d="M77.9325 2.27014H76.733V16.2995C76.7423 17.4712 76.595 18.6389 76.2949 19.7716H77.9325C78.1942 18.633 78.3234 17.4679 78.3176 16.2995V7.6796H88.2517V2.27014H77.9325ZM86.67 6.09206H78.3235V3.86357H86.667L86.67 6.09206Z" fill="white"/>
<path d="M86.6669 18.3889H84.5149V13.8938H86.4435H86.9785H87.9281V9.28395H86.4435V12.5208H84.5149V8.75476H83.0302V12.5208H81.1398V9.28395H79.6551V13.8938H80.3754H81.1398H83.0302V18.3889H80.9017V15.0639H79.4141V19.7619H80.3666H80.9017H86.6669H86.9638H88.1516V15.0639H86.6669V18.3889Z" fill="white"/>
<path d="M41.6426 2.29346V3.80165L44.462 4.80417L41.6426 5.80375V7.31194L46.5817 5.55679L51.5208 7.31194V5.80375L48.7014 4.80417L51.5208 3.80165V2.29346L46.5817 4.0486L41.6426 2.29346Z" fill="white"/>
<path d="M62.8166 9.19039H69.6079V7.447H62.8166V2.20215H60.9145V7.447H54.1232V9.19039H60.9145V18.0573H53.2383V19.8006H70.4928V18.0573H62.8166V9.19039Z" fill="white"/>
<path d="M38.4561 4.23636L41.0844 4.07173V2.5459L34.3196 2.97219V4.49802L36.9479 4.33044V6.68239H34.2402V8.18764H36.9479V19.771H38.4561V8.18764H41.1638V6.68239H38.4561V4.23636Z" fill="white"/>
<path d="M45.2991 7.07898H43.7322L43.3529 8.14327H41.6419V9.61324H42.8325L41.2891 13.9585H42.3357V18.9769H43.7645V13.2353H46.0929V19.7825H47.6011V13.2353H49.8619V16.5456C49.8558 17.393 49.6418 18.2258 49.2387 18.9711H50.8468C51.1828 18.2067 51.356 17.3807 51.3554 16.5456V12.3297V11.8858H47.6011V10.4158H46.0929V11.8858H43.594L44.4172 9.60441H51.5377V8.13444H44.9228L45.2991 7.07898Z" fill="white"/>
<path d="M34.2266 19.3477H35.7171L36.361 8.97852H34.8704L34.2266 19.3477Z" fill="white"/>
<path d="M39.1172 8.97852L39.5611 18.304H41.0517L40.6077 8.97852H39.1172Z" fill="white"/>
</svg>
